<svg xmlns="http://www.w3.org/2000/svg" viewBox="0 0 104 104"><defs><style>.cls-1{fill:#fed58b;}.cls-1,.cls-2,.cls-3,.cls-4{stroke:#604945;}.cls-1,.cls-2,.cls-3,.cls-4,.cls-6{stroke-linecap:round;stroke-linejoin:round;stroke-width:4px;}.cls-2{fill:#badae8;}.cls-3{fill:#fffbfb;}.cls-4{fill:#f9959a;}.cls-5{fill:#fff;}.cls-6{fill:none;stroke:#fff;}</style></defs><title>cari mudah</title><g id="Layer_2" data-name="Layer 2"><g id="Layer_1-2" data-name="Layer 1"><circle class="cls-1" cx="84.76" cy="65.45" r="10.2"/><path class="cls-2" d="M70.19,59l-8.38,6.84v-7H54.47V71.29L48.19,76v1.89H54V100a2,2,0,0,0,2,2H86.05a2,2,0,0,0,2-2V77.85h6.58V76L72.3,59A1.7,1.7,0,0,0,70.19,59Z"/><rect class="cls-3" x="65.92" y="81.87" width="10.85" height="10.85" rx="1.65"/><line class="cls-1" x1="84.76" y1="51.53" x2="84.76" y2="47.71"/><line class="cls-1" x1="98.18" y1="65.45" x2="102" y2="65.45"/><line class="cls-1" x1="74.04" y1="56.2" x2="71.35" y2="53.5"/><line class="cls-1" x1="95.49" y1="56.2" x2="98.18" y2="53.5"/><rect class="cls-4" x="30" y="59.91" width="6.5" height="21.68" transform="translate(59.77 -2.79) rotate(45)"/><rect class="cls-1" x="10.23" y="74.34" width="11.01" height="27.84" transform="translate(67.02 14.72) rotate(45)"/><circle class="cls-2" cx="66.13" cy="37.87" r="35.87"/><path class="cls-5" d="M42,20.12A30.49,30.49,0,0,0,90.08,57.54C74.48,50.87,54.68,39.24,42,20.12Z"/><path class="cls-6" d="M79.7,12.32A28.07,28.07,0,0,1,91.05,23"/></g></g></svg>