<svg xmlns="http://www.w3.org/2000/svg" viewBox="0 0 86.64 104.02"><defs><style>.cls-1{fill:#badae8;}.cls-1,.cls-3,.cls-4{stroke:#604945;stroke-linecap:round;stroke-linejoin:round;stroke-width:4px;}.cls-2{fill:#fff;}.cls-3{fill:#fed58b;}.cls-4{fill:none;}</style></defs><title>terpercaya</title><g id="Layer_2" data-name="Layer 2"><g id="Layer_1-2" data-name="Layer 1"><path class="cls-1" d="M8.05,8.79c8.07,3.75,21.15,3.75,29.22,0,4-1.87,6-4.33,6-6.79,0,2.46,2,4.92,6,6.79,8.07,3.75,21.15,3.75,29.22,0,4-1.87,6-4.33,6-6.79V62.72c0,22.89-41.32,39.3-41.32,39.3S2,85.61,2,62.72V2C2,4.46,4,6.92,8.05,8.79Z"/><path class="cls-2" d="M43.32,51.86v-40c0,1.77,1.8,3.55,5.39,4.91,7.18,2.71,18.83,2.71,26,0,3.59-1.36,5.39-3.14,5.39-4.91V55.68c0,3.08-1.28,12.23-3.36,15.25C66,66.12,53.79,59.7,43.32,51.86Z"/><circle class="cls-3" cx="43.32" cy="51.86" r="19.46"/><polyline class="cls-4" points="34.63 52.29 40.14 57.8 52.02 45.92"/></g></g></svg>